<mxfile host="Electron" agent="Mozilla/5.0 (X11; Linux x86_64) AppleWebKit/537.36 (KHTML, like Gecko) draw.io/26.2.2 Chrome/134.0.6998.178 Electron/35.1.2 Safari/537.36" version="26.2.2">
  <diagram name="Page-1" id="XWObdasLV2xh_aRu7Oot">
    <mxGraphModel dx="739" dy="688" grid="1" gridSize="10" guides="1" tooltips="1" connect="1" arrows="1" fold="1" page="1" pageScale="1" pageWidth="1100" pageHeight="850" math="0" shadow="0">
      <root>
        <mxCell id="0" />
        <mxCell id="1" parent="0" />
        <mxCell id="GU_a_yovUlzbdIzFkT-Y-2" value="" style="whiteSpace=wrap;html=1;aspect=fixed;" vertex="1" parent="1">
          <mxGeometry x="290" y="260" width="120" height="120" as="geometry" />
        </mxCell>
        <mxCell id="GU_a_yovUlzbdIzFkT-Y-1" value="" style="ellipse;whiteSpace=wrap;html=1;aspect=fixed;" vertex="1" parent="1">
          <mxGeometry x="310" y="280" width="80" height="80" as="geometry" />
        </mxCell>
        <mxCell id="GU_a_yovUlzbdIzFkT-Y-3" value="" style="ellipse;whiteSpace=wrap;html=1;aspect=fixed;" vertex="1" parent="1">
          <mxGeometry x="780" y="280" width="80" height="80" as="geometry" />
        </mxCell>
        <mxCell id="GU_a_yovUlzbdIzFkT-Y-4" value="" style="endArrow=none;html=1;rounded=0;entryX=0.5;entryY=0;entryDx=0;entryDy=0;exitX=0.5;exitY=0.5;exitDx=0;exitDy=0;exitPerimeter=0;" edge="1" parent="1" source="GU_a_yovUlzbdIzFkT-Y-1" target="GU_a_yovUlzbdIzFkT-Y-3">
          <mxGeometry width="50" height="50" relative="1" as="geometry">
            <mxPoint x="370" y="410" as="sourcePoint" />
            <mxPoint x="580" y="500" as="targetPoint" />
          </mxGeometry>
        </mxCell>
        <mxCell id="GU_a_yovUlzbdIzFkT-Y-5" value="" style="endArrow=none;html=1;rounded=0;entryX=0.5;entryY=1;entryDx=0;entryDy=0;" edge="1" parent="1" target="GU_a_yovUlzbdIzFkT-Y-3">
          <mxGeometry width="50" height="50" relative="1" as="geometry">
            <mxPoint x="350" y="320" as="sourcePoint" />
            <mxPoint x="800.14" y="363.61" as="targetPoint" />
          </mxGeometry>
        </mxCell>
        <mxCell id="GU_a_yovUlzbdIzFkT-Y-6" value="" style="endArrow=none;html=1;rounded=0;" edge="1" parent="1">
          <mxGeometry width="50" height="50" relative="1" as="geometry">
            <mxPoint x="350" y="319.67" as="sourcePoint" />
            <mxPoint x="820" y="319.67" as="targetPoint" />
          </mxGeometry>
        </mxCell>
        <mxCell id="GU_a_yovUlzbdIzFkT-Y-7" value="" style="endArrow=none;html=1;rounded=0;" edge="1" parent="1">
          <mxGeometry width="50" height="50" relative="1" as="geometry">
            <mxPoint x="819.67" y="320" as="sourcePoint" />
            <mxPoint x="819.67" y="280" as="targetPoint" />
          </mxGeometry>
        </mxCell>
        <mxCell id="GU_a_yovUlzbdIzFkT-Y-8" value="radius" style="text;html=1;align=center;verticalAlign=middle;resizable=0;points=[];autosize=1;strokeColor=none;fillColor=none;" vertex="1" parent="1">
          <mxGeometry x="810" y="290" width="60" height="30" as="geometry" />
        </mxCell>
        <mxCell id="GU_a_yovUlzbdIzFkT-Y-9" value="range" style="text;html=1;align=center;verticalAlign=middle;resizable=0;points=[];autosize=1;strokeColor=none;fillColor=none;" vertex="1" parent="1">
          <mxGeometry x="660" y="300" width="50" height="30" as="geometry" />
        </mxCell>
        <mxCell id="GU_a_yovUlzbdIzFkT-Y-10" value="theta = arctan(radius/range)" style="whiteSpace=wrap;html=1;rounded=1;arcSize=50;align=center;verticalAlign=middle;strokeWidth=1;autosize=1;spacing=4;treeFolding=1;treeMoving=1;newEdgeStyle={&quot;edgeStyle&quot;:&quot;entityRelationEdgeStyle&quot;,&quot;startArrow&quot;:&quot;none&quot;,&quot;endArrow&quot;:&quot;none&quot;,&quot;segment&quot;:10,&quot;curved&quot;:1,&quot;sourcePerimeterSpacing&quot;:0,&quot;targetPerimeterSpacing&quot;:0};" vertex="1" parent="1">
          <mxGeometry x="480" y="260" width="190" height="30" as="geometry" />
        </mxCell>
        <mxCell id="GU_a_yovUlzbdIzFkT-Y-11" value="" style="edgeStyle=entityRelationEdgeStyle;startArrow=none;endArrow=none;segment=10;curved=1;sourcePerimeterSpacing=0;targetPerimeterSpacing=0;rounded=0;" edge="1" target="GU_a_yovUlzbdIzFkT-Y-10" parent="1">
          <mxGeometry relative="1" as="geometry">
            <mxPoint x="450" y="314" as="sourcePoint" />
          </mxGeometry>
        </mxCell>
      </root>
    </mxGraphModel>
  </diagram>
</mxfile>
